<?xml version="1.0" encoding="UTF-8" standalone="no"?>
<!-- Created with Inkscape (http://www.inkscape.org/) -->

<svg
   width="32.0px"
   height="32.0px"
   viewBox="0 0 32.0 32.0"
   version="1.1"
   id="SVGRoot"
   sodipodi:docname="add2.svg"
   inkscape:version="1.2.1 (9c6d41e410, 2022-07-14)"
   xmlns:inkscape="http://www.inkscape.org/namespaces/inkscape"
   xmlns:sodipodi="http://sodipodi.sourceforge.net/DTD/sodipodi-0.dtd"
   xmlns="http://www.w3.org/2000/svg"
   xmlns:svg="http://www.w3.org/2000/svg">
  <sodipodi:namedview
     id="namedview10064"
     pagecolor="#ffffff"
     bordercolor="#000000"
     borderopacity="0.25"
     inkscape:showpageshadow="2"
     inkscape:pageopacity="0.0"
     inkscape:pagecheckerboard="0"
     inkscape:deskcolor="#d1d1d1"
     inkscape:document-units="px"
     showgrid="true"
     inkscape:zoom="4.051698"
     inkscape:cx="-54.174817"
     inkscape:cy="51.953526"
     inkscape:window-width="1920"
     inkscape:window-height="991"
     inkscape:window-x="-9"
     inkscape:window-y="-9"
     inkscape:window-maximized="1"
     inkscape:current-layer="layer1">
    <inkscape:grid
       type="xygrid"
       id="grid10187" />
  </sodipodi:namedview>
  <defs
     id="defs10059" />
  <g
     inkscape:label="Layer 1"
     inkscape:groupmode="layer"
     id="layer1">
    <path
       id="rect10194"
       style="fill:#0000ff;stroke-width:0;stroke-linecap:square;stroke-linejoin:bevel;paint-order:markers fill stroke"
       d="M 3 1 C 1.8920022 1 1 1.8920022 1 3 L 1 29 C 1 30.107998 1.8920022 31 3 31 L 29 31 C 30.107998 31 31 30.107998 31 29 L 31 3 C 31 1.8920022 30.107998 1 29 1 L 3 1 z M 7.3339844 6 L 13.5 6 L 13.5 13.5 L 6 13.5 L 6 7.3339844 C 6 6.5953192 6.5953192 6 7.3339844 6 z M 18.5 6 L 24.666016 6 C 25.404681 6 26 6.5953192 26 7.3339844 L 26 13.5 L 18.5 13.5 L 18.5 6 z M 6 18.5 L 13.5 18.5 L 13.5 26 L 7.3339844 26 C 6.5953192 26 6 25.404681 6 24.666016 L 6 18.5 z M 18.5 18.5 L 26 18.5 L 26 24.666016 C 26 25.404681 25.404681 26 24.666016 26 L 18.5 26 L 18.5 18.5 z " />
  </g>
</svg>
